<svg
    width="24" height="24"
    xmlns="http://www.w3.org/2000/svg"
    viewBox="0 0 1000 1000"
    stroke="#fff"
    fill="#fff"
>
    <polygon points="976.52 594.65 976.52 706.65 365.1 706.65 398.28 594.65 976.52 594.65" />
    <polygon points="976.52 293.35 976.52 405.35 768.59 405.35 801.77 293.35 976.52 293.35" />
    <polygon points="856.68 23.48 783.85 269.35 776.74 293.35 743.56 405.35 736.45 429.35 694.6 570.65 577.79 570.65 619.64 429.35 626.75 405.35 659.93 293.35 667.04 269.35 739.87 23.48 856.68 23.48" />
    <polygon points="647.2 730.65 574.37 976.52 457.57 976.52 530.4 730.65 647.2 730.65" />
    <polygon points="634.9 293.35 601.72 405.35 23.48 405.35 23.48 293.35 634.9 293.35" />
    <polygon points="542.43 23.48 469.6 269.35 352.8 269.35 425.63 23.48 542.43 23.48" />
    <polygon points="422.21 429.35 380.36 570.65 373.25 594.65 340.07 706.65 332.96 730.65 260.13 976.52 143.32 976.52 216.15 730.65 223.26 706.65 256.44 594.65 263.55 570.65 305.4 429.35 422.21 429.35" />
    <polygon points="231.41 594.65 198.23 706.65 23.48 706.65 23.48 594.65 231.41 594.65" />
</svg>
